<?xml version="1.0" encoding="utf-8"?>
<!-- Generator: Adobe Illustrator 27.0.0, SVG Export Plug-In . SVG Version: 6.00 Build 0)  -->
<svg version="1.1" id="Layer_1" xmlns="http://www.w3.org/2000/svg" xmlns:xlink="http://www.w3.org/1999/xlink" x="0px" y="0px"
	 viewBox="0 0 208 69" style="enable-background:new 0 0 208 69;" xml:space="preserve">
<g>
	<path d="M9.2,28.7h-6l2-7.8h3.9V9.8l9,0.1V21h6l-2,7.8h-4v9.6c0,2.6,1.6,3.9,4.8,3.9c1,0,1.8-0.1,2.4-0.4l-2.6,9
		c-0.5,0.1-0.9,0.1-1.4,0.1c-2.7,0-4.9-0.4-6.7-1.3c-1.8-0.9-3.2-2.2-4.1-3.9c-0.9-1.7-1.4-4-1.4-6.7V28.7z"/>
	<path d="M50.2,49.4c-1.7,0.7-3.3,1.1-4.8,1.2C36.5,51.6,32,47.4,32,37.9V21h9.1v16.3c0,1.7,0.4,3,1.2,3.9c0.8,0.9,1.9,1.3,3.3,1.3
		c1.4,0,2.5-0.4,3.3-1.3c0.8-0.9,1.2-2.2,1.2-3.9V21l9.1,0v32.4c0,3.5-1.2,6.5-3.7,9.1c-1.1,1.1-2.7,2.1-4.7,2.8
		c-1.8,0.6-3.6,1-5.4,1h-1.5c-4-0.1-7.3-1.3-9.7-3.7c-1.6-1.6-2.6-3.1-2.9-4.4l8.2-4.8c0.1,1.4,0.6,2.6,1.7,3.6c1,1,2.3,1.5,3.7,1.5
		c1.1,0,2.1-0.3,3.1-1c0.9-0.6,1.5-1.4,2-2.4l0-0.1l0.1-0.1l0.1-0.2l0.1-0.2c0.1-0.2,0.1-0.4,0.1-0.7c0,0,0-0.1,0-0.1v-0.3h0V49.4z"
		/>
	<path d="M69.5,40.9c1.8,1.8,4,2.7,6.6,2.7c2.7,0,4-0.8,4-2.4c0-0.8-0.7-1.4-2.2-1.8c-1.1-0.2-2.7-0.7-5-1.3
		c-1.9-0.5-3.4-1.4-4.7-2.7c-1.3-1.3-1.9-3.3-1.9-6c0-2.1,0.5-3.8,1.6-5.3c1.1-1.4,2.4-2.5,4.1-3.2c1.7-0.7,3.6-1,5.6-1
		c1.2,0,2.3,0.2,3.5,0.5c1.3,0.4,2.4,0.9,3.5,1.5c1.1,0.6,2.1,1.3,2.9,2.1l-5,5c-1.5-1.1-3-1.6-4.8-1.6c-2.1,0-3.1,0.6-3.1,1.7
		c0,1,0.8,1.8,2.3,2.2c1.7,0.5,3.4,0.9,5.1,1.3c1.9,0.5,3.4,1.3,4.7,2.6c1.3,1.3,1.9,3.3,1.9,6.1c0,2.1-0.5,3.8-1.6,5.3
		c-1.1,1.5-2.6,2.6-4.4,3.4c-1.8,0.8-3.7,1.2-5.7,1.2c-1.6,0-3.1-0.1-4.4-0.4c-1.3-0.2-2.6-0.7-3.7-1.2c-1.2-0.6-2.4-1.4-3.7-2.3
		L69.5,40.9z"/>
	<path d="M106.8,28c-2.3,0.1-3.5,1.7-3.5,4.8V50h-9.1V32.8c0-8.2,4.2-12.6,12.5-13h0.5c8.3,0.4,12.5,4.7,12.5,13V50h-9.1V32.8
		c0-3.1-1.2-4.7-3.5-4.8H106.8z"/>
	<path d="M126.3,43c0.5-0.8,1.1-1.4,1.9-1.8c0.8-0.5,1.6-0.7,2.5-0.7c0.9,0,1.7,0.2,2.5,0.7c0.8,0.5,1.4,1.1,1.9,1.9
		c0.5,0.8,0.7,1.6,0.7,2.5c0,1.5-0.5,2.8-1.5,3.7c-1,1-2.2,1.5-3.6,1.5c-0.9,0-1.8-0.2-2.6-0.7c-0.8-0.5-1.4-1.1-1.9-1.9
		c-0.5-0.8-0.7-1.7-0.7-2.7C125.6,44.6,125.8,43.7,126.3,43z"/>
	<path d="M141.6,50l10.6-15.1l-9.9-13.9l9.9-0.1l5.3,8l5.6-8l9.8,0l-10.5,14l11,14.9L162.7,50l-5.5-8.4l-6,8.4L141.6,50z"/>
	<path d="M191.8,42.6h0.5c2.3-0.1,3.5-1.7,3.5-4.8V21h9.1v16.9c0,8.2-4.2,12.5-12.5,13h-0.5c-8.3-0.5-12.5-4.8-12.5-13V21h9.1v16.9
		C188.3,41,189.5,42.6,191.8,42.6z"/>
</g>
</svg>
