<?xml version="1.0" encoding="utf-8"?>
<!-- Generator: Adobe Illustrator 27.0.0, SVG Export Plug-In . SVG Version: 6.00 Build 0)  -->
<svg version="1.1" id="Layer_1" xmlns="http://www.w3.org/2000/svg" xmlns:xlink="http://www.w3.org/1999/xlink" x="0px" y="0px"
	 viewBox="0 0 50 50" style="enable-background:new 0 0 50 50;" xml:space="preserve">
<style type="text/css">
	.st0{fill:#FFFFFF;}
</style>
<path d="M42.8,48.6H7.2c-3.2,0-5.8-2.6-5.8-5.8V7.2C1.4,4,4,1.4,7.2,1.4h35.6c3.2,0,5.8,2.6,5.8,5.8v35.6C48.6,46,46,48.6,42.8,48.6
	z"/>
<path class="st0" d="M10.5,24.5H6.5l1.4-5.2h2.6v-7.4l5.9,0.1v7.4h3.9l-1.3,5.2h-2.7v6.4c0,1.7,1,2.6,3.2,2.6c0.7,0,1.2-0.1,1.6-0.3
	l-1.7,5.9c-0.3,0.1-0.6,0.1-0.9,0.1c-1.8,0-3.3-0.3-4.5-0.9c-1.2-0.7-2.2-1.5-2.7-2.6c-0.5-1.1-1-2.7-1-4.5L10.5,24.5L10.5,24.5z"/>
<path class="st0" d="M22.6,39.2l7.3-10.4L23,19.3l6.9-0.1l3.7,5.5l3.9-5.4h6.8L37,28.9l7.6,10.2l-7.4,0.1l-3.9-5.8l-4.1,5.8H22.6
	L22.6,39.2z"/>
</svg>
