<svg xmlns="http://www.w3.org/2000/svg" version="1.1" xmlns:xlink="http://www.w3.org/1999/xlink" xmlns:svgjs="http://svgjs.com/svgjs" x="0" y="0" viewBox="0 0 512.011 512" style="enable-background:new 0 0 512 512" xml:space="preserve"><g><path fill="#f3d55b" d="M248.074 80.797h.09l159.953-42.902c9.434-2.485 19.098 3.117 21.63 12.535l22.776 85.097 10.329 38.578v.09l48.55 180.965c2.528 9.406-3.043 19.086-12.449 21.625l-97.367 26.043zm0 0" data-original="#f3d55b"/><path fill="#f9eab0" d="M99.594 47.078a17.165 17.165 0 0 1 14.125-2.297l341.097 91.367c9.407 2.54 14.977 12.22 12.45 21.625l-91.368 341.098c-2.539 9.406-12.218 14.977-21.628 12.45L13.172 419.952C3.766 417.414-1.805 407.734.727 398.324l73.445-274.183zm0 0" data-original="#f9eab0"/><g fill="#802f34"><path d="M399.238 198.645a8.675 8.675 0 0 1-2.285-.297l-125.566-33.61a8.824 8.824 0 0 1-6.239-10.812 8.827 8.827 0 0 1 10.813-6.242l125.562 33.652a8.83 8.83 0 0 1 6.473 9.676 8.834 8.834 0 0 1-8.75 7.68zM385.52 249.848c-.77 0-1.54-.102-2.286-.301l-85.363-22.84a8.821 8.821 0 0 1-6.281-6.234 8.833 8.833 0 0 1 10.844-10.82l85.363 22.84a8.827 8.827 0 0 1-2.277 17.355zM371.848 301.047a8.933 8.933 0 0 1-2.297-.3l-106.196-28.505c-4.71-1.265-7.5-6.11-6.238-10.82a8.832 8.832 0 0 1 10.82-6.234l106.196 28.503a8.825 8.825 0 0 1 6.469 9.68 8.828 8.828 0 0 1-8.754 7.676zM110.84 285.914a8.733 8.733 0 0 1-2.293-.297l-25.602-6.86a8.832 8.832 0 0 1-6.234-10.82c1.262-4.707 6.105-7.5 10.816-6.234l25.602 6.856a8.835 8.835 0 0 1 6.469 9.683 8.825 8.825 0 0 1-8.758 7.672zM358.11 352.168c-.77 0-1.54-.102-2.286-.3L159.711 299.28c-4.711-1.261-7.504-6.105-6.242-10.816a8.828 8.828 0 0 1 10.816-6.238l196.113 52.539a8.83 8.83 0 0 1 6.47 9.68 8.823 8.823 0 0 1-8.747 7.675zM97.125 337.07a8.547 8.547 0 0 1-2.29-.3l-25.597-6.848c-4.71-1.262-7.504-6.106-6.242-10.817 1.262-4.707 6.106-7.503 10.813-6.238l25.601 6.848a8.831 8.831 0 0 1 6.469 9.683 8.824 8.824 0 0 1-8.754 7.672zM344.41 403.332c-.773 0-1.539-.102-2.285-.3L146 350.48a8.827 8.827 0 0 1-3.953-14.77 8.827 8.827 0 0 1 8.527-2.284l196.113 52.55a8.826 8.826 0 0 1 6.47 9.676 8.827 8.827 0 0 1-8.747 7.68zm0 0" fill="#802f34" data-original="#802f34"/></g><path fill="#bdc3c7" d="m255.754 266.973-58.172-19.422 49.965-49.965 19.418 58.176a8.891 8.891 0 0 1-11.21 11.21zm0 0" data-original="#bdc3c7"/><path fill="#fb7b76" d="M85.293 35.336 35.328 85.3l-24.98-24.985c-13.797-13.796-13.797-36.164 0-49.96 13.797-13.801 36.168-13.801 49.965 0zm0 0" data-original="#fb7b76"/><path fill="#e64c3c" d="M247.547 197.586 228.832 216.3v.09l-12.45 12.445h-.085l-18.715 18.715-137.27-137.27 18.801-18.715 12.45-12.445 18.714-18.805zm0 0" data-original="#e64c3c"/><path fill="#bdc3c7" d="m35.336 85.3 49.96-49.964 24.981 24.984-49.96 49.961zm0 0" data-original="#bdc3c7"/><path fill="#c03a2b" d="M122.723 122.73a9.034 9.034 0 0 1-6.266 2.56 8.843 8.843 0 0 1-6.18-2.56L79.113 91.566l12.45-12.445 31.16 31.16a8.832 8.832 0 0 1 0 12.45zM228.832 216.3v.09l-12.45 12.446h-.085l-81.125-81.125a8.86 8.86 0 0 1 3.973-14.828 8.867 8.867 0 0 1 8.562 2.293zm0 0" data-original="#c03a2b"/></g></svg>